<svg width="200" height="200" viewBox="0 0 200 200" fill="none" xmlns="http://www.w3.org/2000/svg">
<path d="M170.667 67.7252C170.667 105.308 148.654 153.629 100.333 191.211C52.0127 153.629 30 105.308 30 67.7252C30 30.1425 62.7506 8.66667 100.333 8.66667C137.916 8.66667 170.667 30.1425 170.667 67.7252Z" fill="#C0AC8C" stroke="#222222" stroke-width="0.666667"/>
<path d="M63.2875 148.26C66.7774 147.413 69.1511 146.44 70.804 144.843M74.0254 137.522C73.4195 140.954 72.4841 143.22 70.804 144.843M137.916 148.26C134.426 147.413 132.052 146.44 130.399 144.843M127.178 137.522C127.784 140.954 128.719 143.22 130.399 144.843M70.804 144.843C94.4543 171.202 107.483 169.791 130.399 144.843" stroke="#222222" stroke-width="1.33333" stroke-linecap="round" stroke-linejoin="round"/>
<path d="M156.17 87.5903C126.344 89.7702 115.718 98.2307 109.461 128.394C139.855 126.023 149.339 116.259 156.17 87.5903Z" fill="#222222"/>
<path d="M44.4962 87.5903C74.3229 89.7702 84.949 98.2307 91.2061 128.394C60.8113 126.023 51.3278 116.259 44.4962 87.5903Z" fill="#222222"/>
<path d="M156.17 87.5903C126.344 89.7702 115.718 98.2307 109.461 128.394C139.855 126.023 149.339 116.259 156.17 87.5903Z" stroke="#222222" stroke-width="0.666667"/>
<path d="M44.4962 87.5903C74.3229 89.7702 84.949 98.2307 91.2061 128.394C60.8113 126.023 51.3278 116.259 44.4962 87.5903Z" stroke="#222222" stroke-width="0.666667"/>
</svg>
